<?xml version="1.0" encoding="UTF-8"?>
<svg width="48px" height="48px" viewBox="0 0 48 48" version="1.1" xmlns="http://www.w3.org/2000/svg" xmlns:xlink="http://www.w3.org/1999/xlink">
    <!-- Generator: Sketch 51 (57462) - http://www.bohemiancoding.com/sketch -->
    <title>icon-home-active</title>
    <desc>Created with Sketch.</desc>
    <defs>
        <path d="M33.8548561,33.8749526 C33.8548561,34.1874521 33.7454816,34.453076 33.5267319,34.6718257 C33.3079822,34.8905754 33.0423583,34.9999499 32.7298588,34.9999499 L27.2923718,34.9999499 C27.1361224,34.9999499 27.0033097,34.9452623 26.8939352,34.8358878 C26.7845607,34.7265133 26.7298731,34.5937007 26.7298731,34.4374513 L26.7298731,29.1874638 C26.7298731,29.0312144 26.6751855,28.8984017 26.565811,28.7890272 C26.4564365,28.6796527 26.3236239,28.6249651 26.1673745,28.6249651 L22.7923825,28.6249651 C22.6361331,28.6249651 22.5033205,28.6796527 22.393946,28.7890272 C22.2845715,28.8984017 22.2298839,29.0312144 22.2298839,29.1874638 L22.2298839,34.4374513 C22.2298839,34.5937007 22.1751963,34.7265133 22.0658218,34.8358878 C21.9564473,34.9452623 21.8236346,34.9999499 21.6673852,34.9999499 L16.2298982,34.9999499 C15.9173987,34.9999499 15.6517748,34.8905754 15.4330251,34.6718257 C15.2142754,34.453076 15.1049009,34.1874521 15.1049009,33.8749526 L15.1049009,27.1718436 C15.1049009,26.984344 15.1674005,26.8280947 15.2924004,26.7030947 L24.1048794,19.4843619 C24.2298793,19.3906121 24.3548786,19.3437373 24.4798785,19.3437373 C24.6048784,19.3437373 24.7298777,19.3906121 24.8548776,19.4843619 L33.6673566,26.7030947 C33.7923565,26.8280947 33.8548561,26.984344 33.8548561,27.1718436 L33.8548561,33.8749526 Z M37.7923468,24.3124754 C37.8860965,24.4062252 37.9407841,24.5312251 37.9564089,24.6874745 C37.9720336,24.8437239 37.9329714,24.9843486 37.8392216,25.1093485 L36.6673494,26.56247 C36.5735997,26.68747 36.4485997,26.7499696 36.2923503,26.7499696 C36.1361009,26.7499696 35.9954763,26.7030947 35.8704763,26.6093449 L24.8548776,17.5624915 C24.7298777,17.4687417 24.6048784,17.4218668 24.4798785,17.4218668 C24.3548786,17.4218668 24.2298793,17.4687417 24.1048794,17.5624915 L13.0892807,26.6093449 C12.9642807,26.7030947 12.8236561,26.7499696 12.6674067,26.7499696 C12.5111573,26.7499696 12.3861573,26.68747 12.2924076,26.56247 L11.1205354,25.1093485 C11.0267856,24.9843486 10.9877234,24.8437239 11.0033481,24.6874745 C11.0189729,24.5312251 11.0736605,24.4062252 11.1674102,24.3124754 L23.0736319,14.5156238 C23.4798811,14.1718748 23.94863,14 24.4798785,14 C25.011127,14 25.4955013,14.1718748 25.933,14.5156238 L30.1048651,17.9843655 L30.1048651,14.5624987 C30.1048651,14.4062493 30.1595527,14.2734366 30.2689272,14.1640621 C30.3783017,14.0546876 30.5111144,14 30.6673637,14 L33.2923575,14 C33.4486069,14 33.5814195,14.0546876 33.690794,14.1640621 C33.8001685,14.2734366 33.8548561,14.4062493 33.8548561,14.5624987 L33.8548561,21.0781081 L37.7923468,24.3124754 Z" id="path-1"></path>
    </defs>
    <g id="Screens" stroke="none" stroke-width="1" fill="none" fill-rule="evenodd">
        <g id="Other--Icons" transform="translate(-248.000000, -184.000000)">
            <g id="icon-home-active" transform="translate(248.000000, 184.000000)">
                <circle id="circle" fill="#E0303E" cx="24" cy="24" r="24"></circle>
                <mask id="mask-2" fill="white">
                    <use xlink:href="#path-1"></use>
                </mask>
                <g id="home">
                    <use fill-opacity="0.2" fill="#000000" xlink:href="#path-1"></use>
                    <use fill="#FFFFFF" xlink:href="#path-1"></use>
                </g>
            </g>
        </g>
    </g>
</svg>