<?xml version="1.0" encoding="UTF-8"?>
<svg width="48px" height="48px" viewBox="0 0 48 48" version="1.1" xmlns="http://www.w3.org/2000/svg" xmlns:xlink="http://www.w3.org/1999/xlink">
    <!-- Generator: Sketch 51 (57462) - http://www.bohemiancoding.com/sketch -->
    <title>icon-person-active</title>
    <desc>Created with Sketch.</desc>
    <defs>
        <path d="M24.4999893,12 C25.3437373,12 26.0546733,12.289062 26.6327967,12.8671854 C27.2109201,13.4453088 27.4999821,14.1562449 27.4999821,14.9999928 C27.4999821,15.8437408 27.2109201,16.5546769 26.6327967,17.1328003 C26.0546733,17.7109236 25.3437373,17.9999857 24.4999893,17.9999857 C23.6562413,17.9999857 22.9453052,17.7109236 22.3671819,17.1328003 C21.7890585,16.5546769 21.4999964,15.8437408 21.4999964,14.9999928 C21.4999964,14.1562449 21.7890585,13.4453088 22.3671819,12.8671854 C22.9453052,12.289062 23.6562413,12 24.4999893,12 Z M26.7499839,18.7499839 C27.3749822,18.7499839 27.9062314,18.9687336 28.3437301,19.4062323 C28.7812288,19.8437311 28.9999785,20.3749803 28.9999785,20.9999785 L28.9999785,27.3749633 C28.9999785,27.6874628 28.890604,27.9530867 28.6718543,28.1718364 C28.4531046,28.3905862 28.1874807,28.4999607 27.8749812,28.4999607 L27.124983,28.4999607 L27.124983,34.8749455 C27.124983,35.187445 27.0156085,35.4530688 26.7968588,35.6718186 C26.5781091,35.8905683 26.3124852,35.9999428 25.9999857,35.9999428 L22.9999928,35.9999428 C22.6874934,35.9999428 22.4218695,35.8905683 22.2031197,35.6718186 C21.98437,35.4530688 21.8749955,35.187445 21.8749955,34.8749455 L21.8749955,28.4999607 L21.1249973,28.4999607 C20.8124978,28.4999607 20.5468739,28.3905862 20.3281242,28.1718364 C20.1093745,27.9530867 20,27.6874628 20,27.3749633 L20,20.9999785 C20,20.3749803 20.2187497,19.8437311 20.6562484,19.4062323 C21.0937472,18.9687336 21.6249964,18.7499839 22.2499946,18.7499839 L22.7656184,18.7499839 C23.3281171,18.9999831 23.9062404,19.124983 24.4999893,19.124983 C25.0937381,19.124983 25.6718615,18.9999831 26.2343601,18.7499839 L26.7499839,18.7499839 Z" id="path-1"></path>
    </defs>
    <g id="Screens" stroke="none" stroke-width="1" fill="none" fill-rule="evenodd">
        <g id="Other--Icons" transform="translate(-120.000000, -184.000000)">
            <g id="icon-person-active" transform="translate(120.000000, 184.000000)">
                <circle id="circle" fill="#E0303E" cx="24" cy="24" r="24"></circle>
                <mask id="mask-2" fill="white">
                    <use xlink:href="#path-1"></use>
                </mask>
                <use id="male" fill="#FFFFFF" xlink:href="#path-1"></use>
            </g>
        </g>
    </g>
</svg>