<?xml version="1.0" encoding="UTF-8" standalone="no"?>
<svg
   xmlns:dc="http://purl.org/dc/elements/1.1/"
   xmlns:cc="http://creativecommons.org/ns#"
   xmlns:rdf="http://www.w3.org/1999/02/22-rdf-syntax-ns#"
   xmlns:svg="http://www.w3.org/2000/svg"
   xmlns="http://www.w3.org/2000/svg"
   xmlns:xlink="http://www.w3.org/1999/xlink"
   id="svg3749"
   version="1.1"
   viewBox="0 0 48 48"
   height="48px"
   width="48px">
  <metadata
     id="metadata3753">
    <rdf:RDF>
      <cc:Work
         rdf:about="">
        <dc:format>image/svg+xml</dc:format>
        <dc:type
           rdf:resource="http://purl.org/dc/dcmitype/StillImage" />
        <dc:title>icon-car-active</dc:title>
      </cc:Work>
    </rdf:RDF>
  </metadata>
  <!-- Generator: Sketch 51 (57462) - http://www.bohemiancoding.com/sketch -->
  <title
     id="title3734">icon-car-active</title>
  <desc
     id="desc3736">Created with Sketch.</desc>
  <defs
     id="defs3739">
    <path
       id="path-1"
       d="M35.4246599,19.8749884 C35.6121594,19.8749884 35.7605968,19.9531134 35.8699713,20.1093628 C35.9793458,20.2656122 36.0027833,20.437487 35.9402837,20.6249866 L35.5652846,21.7499839 C35.5027849,21.9999831 35.3309101,22.124983 35.0496608,22.124983 L33.690289,22.124983 C34.1590379,22.4062323 34.534037,22.7734187 34.8152863,23.2265429 C35.0965357,23.679667 35.2371603,24.1874781 35.2371603,24.7499768 L35.2371603,26.9999714 C35.2371603,27.7499696 34.9871612,28.406218 34.4871621,28.9687167 L34.4871621,31.8749598 C34.4871621,32.1874593 34.3777876,32.4530832 34.1590379,32.6718329 C33.9402882,32.8905826 33.6746643,32.9999571 33.3621648,32.9999571 L31.1121702,32.9999571 C30.7996707,32.9999571 30.5340468,32.8905826 30.3152971,32.6718329 C30.0965474,32.4530832 29.9871729,32.1874593 29.9871729,31.8749598 L29.9871729,29.9999642 L17.9872015,29.9999642 L17.9872015,31.8749598 C17.9872015,32.1874593 17.877827,32.4530832 17.6590773,32.6718329 C17.4403275,32.8905826 17.1747036,32.9999571 16.8622042,32.9999571 L14.6122095,32.9999571 C14.29971,32.9999571 14.0340861,32.8905826 13.8153364,32.6718329 C13.5965867,32.4530832 13.4872122,32.1874593 13.4872122,31.8749598 L13.4872122,28.9687167 C12.9872132,28.406218 12.737214,27.7499696 12.737214,26.9999714 L12.737214,24.7499768 C12.737214,24.1874781 12.8778387,23.679667 13.159088,23.2265429 C13.4403373,22.7734187 13.8153364,22.4062323 14.2840853,22.124983 L12.9247135,22.124983 C12.6434642,22.124983 12.4715894,21.9999831 12.4090898,21.7499839 L12.0340907,20.6249866 C11.971591,20.437487 11.9950285,20.2656122 12.104403,20.1093628 C12.2137775,19.9531134 12.3622149,19.8749884 12.5497144,19.8749884 L15.1278333,19.8749884 L15.5028324,18.8906157 C15.9403311,17.7343682 16.6747046,16.7968705 17.7059521,16.0781224 C18.7371997,15.3593744 19.8778217,15 21.127819,15 L26.8465553,15 C28.0965526,15 29.2371746,15.3593744 30.2684222,16.0781224 C31.2996697,16.7968705 32.0340432,17.7343682 32.4715419,18.8906157 L32.846541,19.8749884 L35.4246599,19.8749884 Z M18.3153257,19.9687382 L17.6122024,21.7499839 L30.362172,21.7499839 L29.6590486,19.9687382 C29.4402989,19.3749893 29.0731125,18.8984284 28.5574888,18.5390541 C28.041865,18.1796797 27.4715536,17.9999928 26.8465553,17.9999928 L21.127819,17.9999928 C20.5028207,17.9999928 19.9325093,18.1796797 19.4168856,18.5390541 C18.9012618,18.8984284 18.5340754,19.3749893 18.3153257,19.9687382 Z M16.1122059,27.3749705 L16.2997055,27.3749705 C16.9247038,27.3749705 17.3778279,27.3437203 17.6590773,27.2812207 C18.1278261,27.1874709 18.3622006,26.9687212 18.3622006,26.6249723 C18.3622006,26.218723 18.088764,25.7421621 17.54189,25.1952882 C16.9950161,24.6484143 16.5184552,24.3749776 16.1122059,24.3749776 C15.7059567,24.3749776 15.354395,24.523415 15.057521,24.8202891 C14.7606469,25.1171631 14.6122095,25.4687248 14.6122095,25.8749741 C14.6122095,26.2812233 14.7606469,26.632785 15.057521,26.9296591 C15.354395,27.2265331 15.7059567,27.3749705 16.1122059,27.3749705 Z M31.8621684,27.3749705 C32.2684177,27.3749705 32.6199793,27.2265331 32.9168534,26.9296591 C33.2137274,26.632785 33.3621648,26.2812233 33.3621648,25.8749741 C33.3621648,25.4687248 33.2137274,25.1171631 32.9168534,24.8202891 C32.6199793,24.523415 32.2684177,24.3749776 31.8621684,24.3749776 C31.4559191,24.3749776 30.9793582,24.6484143 30.4324843,25.1952882 C29.8856104,25.7421621 29.6121738,26.218723 29.6121738,26.6249723 C29.6121738,26.9687212 29.8465482,27.1874709 30.3152971,27.2812207 C30.5965464,27.3437203 31.0496706,27.3749705 31.6746688,27.3749705 L31.8621684,27.3749705 Z" />
  </defs>
  <g
     style="fill:none;fill-rule:evenodd;stroke:none;stroke-width:1"
     id="Screens">
    <g
       transform="translate(-184,-184)"
       id="Other--Icons">
      <g
         transform="translate(184,184)"
         id="icon-car-active">
        <circle
           style="fill:#292425;fill-opacity:1"
           r="24"
           cy="24"
           cx="24"
           id="circle" />
        <mask
           fill="white"
           id="mask-2">
          <use
             height="100%"
             width="100%"
             y="0"
             x="0"
             id="use3742"
             xlink:href="#path-1" />
        </mask>
      </g>
    </g>
  </g>
  <path
     style="fill:#ffffff;stroke-width:0.05120824"
     id="path3765"
     d="M 36.295487,22.361339 H 34.784842 C 34.334215,21.337175 33.67875,20.430782 32.869655,19.6729 l 0.967838,-3.86622 H 32.19883 c -1.505525,0 -2.836943,0.691309 -3.738208,1.756445 -0.389181,-0.05636 -0.773243,-0.117786 -1.177786,-0.117786 h -6.554659 c -3.963516,0 -7.266449,2.816452 -8.02946,6.554658 h -2.212192 c -0.757883,0 -1.357022,-0.691315 -1.203399,-1.4748 0.112659,-0.583778 0.660594,-0.9832 1.254604,-0.9832 h 0.0512 c 0.168984,0 0.307245,-0.138261 0.307245,-0.307246 v -1.024158 c 0,-0.168993 -0.138261,-0.307255 -0.307245,-0.307255 -1.45944,0 -2.7601275,1.044655 -2.9444815,2.488724 -0.22531,1.751324 1.1368225,3.246607 2.8420625,3.246607 h 2.048329 c 0,2.673069 1.300688,5.023524 3.27733,6.518806 v 4.132508 c 0,0.450637 0.3687,0.819329 0.819337,0.819329 h 3.277328 c 0.450628,0 0.819329,-0.368692 0.819329,-0.819329 v -2.457992 h 6.554658 v 2.457992 c 0,0.450637 0.3687,0.819329 0.819328,0.819329 h 3.27733 c 0.450635,0 0.819336,-0.368692 0.819336,-0.819329 v -4.132508 c 0.604259,-0.455748 1.141944,-0.993442 1.602821,-1.602813 h 2.493836 c 0.450636,0 0.819337,-0.368701 0.819337,-0.819336 v -6.554659 c 0,-0.450627 -0.368701,-0.819328 -0.819337,-0.819328 z m -6.554659,3.27733 c -0.450627,0 -0.819328,-0.368701 -0.819328,-0.819338 0,-0.450627 0.368701,-0.819327 0.819328,-0.819327 0.450637,0 0.819337,0.3687 0.819337,0.819327 0,0.450637 -0.3687,0.819338 -0.819337,0.819338 z M 20.728177,15.80668 h 6.554659 c 0.276523,0 0.547924,0.02045 0.814207,0.04098 0,-0.01537 0.0049,-0.02561 0.0049,-0.04098 0,-2.71404 -2.201952,-4.915992 -4.915994,-4.915992 -2.714034,0 -4.915986,2.201952 -4.915986,4.915992 0,0.107537 0.02561,0.209957 0.03075,0.317489 0.778365,-0.199708 1.587452,-0.317489 2.427271,-0.317489 z" />
</svg>
