<?xml version="1.0" encoding="UTF-8"?>
<svg width="48px" height="48px" viewBox="0 0 48 48" version="1.1" xmlns="http://www.w3.org/2000/svg" xmlns:xlink="http://www.w3.org/1999/xlink">
    <!-- Generator: Sketch 51 (57462) - http://www.bohemiancoding.com/sketch -->
    <title>icon-company-highlight</title>
    <desc>Created with Sketch.</desc>
    <defs></defs>
    <g id="Screens" stroke="none" stroke-width="1" fill="none" fill-rule="evenodd">
        <g id="Other--Icons" transform="translate(-56.000000, -120.000000)">
            <g id="icon-company-highlight" transform="translate(56.000000, 120.000000)">
                <circle id="circle" fill="#F6DA00" cx="24" cy="24" r="24"></circle>
                <path d="M34.4375,34.4999464 C34.5937498,34.4999464 34.7265627,34.554634 34.8359375,34.6640085 C34.9453123,34.773383 35,34.9061956 35,35.062445 L35,35.9999428 L14,35.9999428 L14,35.062445 C14,34.9061956 14.0546877,34.773383 14.1640625,34.6640085 C14.2734373,34.554634 14.4062502,34.4999464 14.5625,34.4999464 L15.5,34.4999464 L15.5,13.1249973 C15.5,12.8124978 15.6093748,12.5468739 15.828125,12.3281242 C16.0468752,12.1093745 16.3124998,12 16.625,12 L32.375,12 C32.6875002,12 32.9531248,12.1093745 33.171875,12.3281242 C33.3906252,12.5468739 33.5,12.8124978 33.5,13.1249973 L33.5,34.4999464 L34.4375,34.4999464 Z M19.9999857,15.5624915 L19.9999857,17.437487 C19.9999857,17.5937364 20.0546733,17.7265491 20.1640478,17.8359236 C20.2734223,17.9452981 20.406235,17.9999857 20.5624844,17.9999857 L22.4374799,17.9999857 C22.5937293,17.9999857 22.7265419,17.9452981 22.8359164,17.8359236 C22.9452909,17.7265491 22.9999785,17.5937364 22.9999785,17.437487 L22.9999785,15.5624915 C22.9999785,15.4062421 22.9452909,15.2734295 22.8359164,15.164055 C22.7265419,15.0546805 22.5937293,14.9999928 22.4374799,14.9999928 L20.5624844,14.9999928 C20.406235,14.9999928 20.2734223,15.0546805 20.1640478,15.164055 C20.0546733,15.2734295 19.9999857,15.4062421 19.9999857,15.5624915 Z M19.9999857,20.0624808 L19.9999857,21.9374763 C19.9999857,22.0937257 20.0546733,22.2265384 20.1640478,22.3359129 C20.2734223,22.4452874 20.406235,22.499975 20.5624844,22.499975 L22.4374799,22.499975 C22.5937293,22.499975 22.7265419,22.4452874 22.8359164,22.3359129 C22.9452909,22.2265384 22.9999785,22.0937257 22.9999785,21.9374763 L22.9999785,20.0624808 C22.9999785,19.9062314 22.9452909,19.7734187 22.8359164,19.6640442 C22.7265419,19.5546697 22.5937293,19.4999821 22.4374799,19.4999821 L20.5624844,19.4999821 C20.406235,19.4999821 20.2734223,19.5546697 20.1640478,19.6640442 C20.0546733,19.7734187 19.9999857,19.9062314 19.9999857,20.0624808 Z M22.4374799,26.9999642 C22.5937293,26.9999642 22.7265419,26.9452766 22.8359164,26.8359021 C22.9452909,26.7265276 22.9999785,26.593715 22.9999785,26.4374656 L22.9999785,24.56247 C22.9999785,24.4062207 22.9452909,24.273408 22.8359164,24.1640335 C22.7265419,24.054659 22.5937293,23.9999714 22.4374799,23.9999714 L20.5624844,23.9999714 C20.406235,23.9999714 20.2734223,24.054659 20.1640478,24.1640335 C20.0546733,24.273408 19.9999857,24.4062207 19.9999857,24.56247 L19.9999857,26.4374656 C19.9999857,26.593715 20.0546733,26.7265276 20.1640478,26.8359021 C20.2734223,26.9452766 20.406235,26.9999642 20.5624844,26.9999642 L22.4374799,26.9999642 Z M25.9999714,34.4999464 L25.9999714,30.5624557 C25.9999714,30.4062064 25.9452838,30.2733937 25.8359093,30.1640192 C25.7265348,30.0546447 25.5937221,29.9999571 25.4374727,29.9999571 L23.5624772,29.9999571 C23.4062278,29.9999571 23.2734152,30.0546447 23.1640407,30.1640192 C23.0546662,30.2733937 22.9999785,30.4062064 22.9999785,30.5624557 L22.9999785,34.4999464 L25.9999714,34.4999464 Z M28.9999642,26.4374656 L28.9999642,24.56247 C28.9999642,24.4062207 28.9452766,24.273408 28.8359021,24.1640335 C28.7265276,24.054659 28.593715,23.9999714 28.4374656,23.9999714 L26.56247,23.9999714 C26.4062207,23.9999714 26.273408,24.054659 26.1640335,24.1640335 C26.054659,24.273408 25.9999714,24.4062207 25.9999714,24.56247 L25.9999714,26.4374656 C25.9999714,26.593715 26.054659,26.7265276 26.1640335,26.8359021 C26.273408,26.9452766 26.4062207,26.9999642 26.56247,26.9999642 L28.4374656,26.9999642 C28.593715,26.9999642 28.7265276,26.9452766 28.8359021,26.8359021 C28.9452766,26.7265276 28.9999642,26.593715 28.9999642,26.4374656 Z M28.9999642,21.9374763 L28.9999642,20.0624808 C28.9999642,19.9062314 28.9452766,19.7734187 28.8359021,19.6640442 C28.7265276,19.5546697 28.593715,19.4999821 28.4374656,19.4999821 L26.56247,19.4999821 C26.4062207,19.4999821 26.273408,19.5546697 26.1640335,19.6640442 C26.054659,19.7734187 25.9999714,19.9062314 25.9999714,20.0624808 L25.9999714,21.9374763 C25.9999714,22.0937257 26.054659,22.2265384 26.1640335,22.3359129 C26.273408,22.4452874 26.4062207,22.499975 26.56247,22.499975 L28.4374656,22.499975 C28.593715,22.499975 28.7265276,22.4452874 28.8359021,22.3359129 C28.9452766,22.2265384 28.9999642,22.0937257 28.9999642,21.9374763 Z M28.9999642,17.437487 L28.9999642,15.5624915 C28.9999642,15.4062421 28.9452766,15.2734295 28.8359021,15.164055 C28.7265276,15.0546805 28.593715,14.9999928 28.4374656,14.9999928 L26.56247,14.9999928 C26.4062207,14.9999928 26.273408,15.0546805 26.1640335,15.164055 C26.054659,15.2734295 25.9999714,15.4062421 25.9999714,15.5624915 L25.9999714,17.437487 C25.9999714,17.5937364 26.054659,17.7265491 26.1640335,17.8359236 C26.273408,17.9452981 26.4062207,17.9999857 26.56247,17.9999857 L28.4374656,17.9999857 C28.593715,17.9999857 28.7265276,17.9452981 28.8359021,17.8359236 C28.9452766,17.7265491 28.9999642,17.5937364 28.9999642,17.437487 Z" id="building" fill="#292425"></path>
            </g>
        </g>
    </g>
</svg>