<?xml version="1.0" encoding="UTF-8"?>
<svg width="246px" height="48px" viewBox="0 0 246 48" version="1.1" xmlns="http://www.w3.org/2000/svg" xmlns:xlink="http://www.w3.org/1999/xlink">
    <!-- Generator: Sketch 49 (51002) - http://www.bohemiancoding.com/sketch -->
    <title>logo</title>
    <desc>Created with Sketch.</desc>
    <defs>
        <path d="M68,40.8933626 L68,29 L65,29 L62,30.5 L59,29 L56,29 L56,42 L58,42 L58,45.3055018 C54.8392451,46.4226682 51.8392451,47.1924432 49,47.6148267 L49,40 L52,40 L52,25 L48,25 L44,26.5 L40,25 L36,25 L36,40 L39,40 L39,47.6105255 C36.1657543,47.1847256 33.1657543,46.4097905 30,45.2857203 L30,42 L32,42 L32,29 L29,29 L26,30.5 L23,29 L20,29 L20,40.8632517 C13.8464506,37.6563013 7.17978397,33.3685507 0,28 L0,20 C17.7345052,6.66666667 32.4011719,7.54384993e-16 44,0 C55.5135612,0 70.1802279,6.66666667 88,20 L88,28 C80.8300557,33.3853707 74.163389,37.6831582 68,40.8933626 Z M44,24 C47.3137085,24 50,21.3137085 50,18 C50,14.6862915 47.3137085,12 44,12 C40.6862915,12 38,14.6862915 38,18 C38,21.3137085 40.6862915,24 44,24 Z M26,28 C28.209139,28 30,26.209139 30,24 C30,21.790861 28.209139,20 26,20 C23.790861,20 22,21.790861 22,24 C22,26.209139 23.790861,28 26,28 Z M62,28 C64.209139,28 66,26.209139 66,24 C66,21.790861 64.209139,20 62,20 C59.790861,20 58,21.790861 58,24 C58,26.209139 59.790861,28 62,28 Z" id="path-1"></path>
    </defs>
    <g id="Assets" stroke="none" stroke-width="1" fill="none" fill-rule="evenodd">
        <g id="Layout/Header" transform="translate(-144.000000, -24.000000)">
            <g id="Header">
                <g id="logo" transform="translate(144.000000, 24.000000)">
                    <path d="M105.968,34 C105.807999,34 105.728,33.9200008 105.728,33.76 L105.728,17.44 C105.728,17.2799992 105.807999,17.2 105.968,17.2 L107.792,17.2 C107.936001,17.2 108.032,17.2559994 108.08,17.368 L111.344,24.064 C111.36,24.0960002 111.384,24.112 111.416,24.112 C111.448,24.112 111.472,24.0960002 111.488,24.064 L114.776,17.368 C114.824,17.2559994 114.919999,17.2 115.064,17.2 L116.888,17.2 C117.048001,17.2 117.128,17.2799992 117.128,17.44 L117.128,33.76 C117.128,33.9200008 117.048001,34 116.888,34 L115.064,34 C114.903999,34 114.824,33.9200008 114.824,33.76 L114.824,22.336 C114.824,22.2879998 114.812,22.264 114.788,22.264 C114.764,22.264 114.736,22.2799998 114.704,22.312 L112.136,27.496 C112.088,27.6080006 111.992001,27.664 111.848,27.664 L111.032,27.664 C110.887999,27.664 110.792,27.6080006 110.744,27.496 L108.152,22.288 C108.12,22.2559998 108.092,22.244 108.068,22.252 C108.044,22.26 108.032,22.2879998 108.032,22.336 L108.032,33.76 C108.032,33.9200008 107.952001,34 107.792,34 L105.968,34 Z M127.712,34.216 C126.687995,34.216 125.788004,34.0040021 125.012,33.58 C124.235996,33.1559979 123.632002,32.5600038 123.2,31.792 C122.767998,31.0239962 122.552,30.136005 122.552,29.128 L122.552,22.072 C122.552,21.079995 122.767998,20.2000038 123.2,19.432 C123.632002,18.6639962 124.235996,18.0680021 125.012,17.644 C125.788004,17.2199979 126.687995,17.008 127.712,17.008 C128.736005,17.008 129.639996,17.2199979 130.424,17.644 C131.208004,18.0680021 131.815998,18.6639962 132.248,19.432 C132.680002,20.2000038 132.896,21.079995 132.896,22.072 L132.896,29.128 C132.896,30.136005 132.680002,31.0239962 132.248,31.792 C131.815998,32.5600038 131.208004,33.1559979 130.424,33.58 C129.639996,34.0040021 128.736005,34.216 127.712,34.216 Z M127.712,32.2 C128.576004,32.2 129.271997,31.9280027 129.8,31.384 C130.328003,30.8399973 130.592,30.1200045 130.592,29.224 L130.592,22.024 C130.592,21.1279955 130.328003,20.4000028 129.8,19.84 C129.271997,19.2799972 128.576004,19 127.712,19 C126.863996,19 126.176003,19.2799972 125.648,19.84 C125.119997,20.4000028 124.856,21.1279955 124.856,22.024 L124.856,29.224 C124.856,30.1040044 125.119997,30.8199972 125.648,31.372 C126.176003,31.9240028 126.863996,32.2 127.712,32.2 Z M137.72,34 C137.559999,34 137.48,33.9200008 137.48,33.76 L137.48,32.128 C137.48,32.0159994 137.504,31.9120005 137.552,31.816 L144.536,19.312 C144.552,19.2799998 144.556,19.2520001 144.548,19.228 C144.54,19.2039999 144.52,19.192 144.488,19.192 L137.72,19.192 C137.559999,19.192 137.48,19.1120008 137.48,18.952 L137.48,17.44 C137.48,17.2799992 137.559999,17.2 137.72,17.2 L146.864,17.2 C147.024001,17.2 147.104,17.2799992 147.104,17.44 L147.104,19.072 C147.104,19.1840006 147.08,19.2879995 147.032,19.384 L140.024,31.888 C140.008,31.9200002 140.004,31.9479999 140.012,31.972 C140.02,31.9960001 140.04,32.008 140.072,32.008 L146.864,32.008 C147.024001,32.008 147.104,32.0879992 147.104,32.248 L147.104,33.76 C147.104,33.9200008 147.024001,34 146.864,34 L137.72,34 Z M160.808,34 C160.664,34 160.576,33.9280007 160.544,33.784 L159.848,31 C159.848,30.9519998 159.808001,30.928 159.728,30.928 L154.424,30.928 C154.36,30.928 154.32,30.9519998 154.304,31 L153.584,33.784 C153.568,33.9280007 153.480001,34 153.32,34 L151.448,34 C151.368,34 151.308,33.9760002 151.268,33.928 C151.228,33.8799998 151.216,33.8160004 151.232,33.736 L155.672,17.416 C155.704,17.2719993 155.792,17.2 155.936,17.2 L158.192,17.2 C158.336001,17.2 158.424,17.2719993 158.456,17.416 L162.92,33.736 L162.944,33.808 C162.944,33.9360006 162.864001,34 162.704,34 L160.808,34 Z M154.808,29.008 C154.792,29.0240001 154.796,29.0439999 154.82,29.068 C154.844,29.0920001 154.872,29.104 154.904,29.104 L159.224,29.104 C159.256,29.104 159.284,29.0920001 159.308,29.068 C159.332,29.0439999 159.336,29.0240001 159.32,29.008 L157.136,20.368 C157.12,20.3359998 157.104,20.32 157.088,20.32 C157.072,20.32 157.056,20.3359998 157.04,20.368 L154.808,29.008 Z M168.032,34 C167.872,34 167.792,33.9200008 167.792,33.76 L167.792,17.44 C167.792,17.2799992 167.872,17.2 168.032,17.2 L169.856,17.2 C170.016001,17.2 170.096,17.2799992 170.096,17.44 L170.096,33.76 C170.096,33.9200008 170.016001,34 169.856,34 L168.032,34 Z M176.192,34 C176.032,34 175.952,33.9200008 175.952,33.76 L175.952,17.44 C175.952,17.2799992 176.032,17.2 176.192,17.2 L178.016,17.2 C178.176001,17.2 178.256,17.2799992 178.256,17.44 L178.256,24.88 C178.256,24.9120002 178.272,24.932 178.304,24.94 C178.336001,24.948 178.36,24.9360002 178.376,24.904 L183.872,17.344 C183.936001,17.2479995 184.032,17.2 184.16,17.2 L186.152,17.2 C186.248001,17.2 186.316,17.2319997 186.356,17.296 C186.396001,17.3600003 186.384001,17.4239997 186.32,17.488 L181.64,24.184 C181.624,24.2320002 181.624,24.2799998 181.64,24.328 L186.704,33.712 C186.720001,33.7440002 186.728,33.7839998 186.728,33.832 C186.728,33.8800002 186.708001,33.9199998 186.668,33.952 C186.628,33.9840002 186.576001,34 186.512,34 L184.472,34 C184.328,34 184.232001,33.9440006 184.184,33.832 L180.032,26.152 C180,26.0559995 179.960001,26.0479996 179.912,26.128 L178.304,28.24 C178.272,28.2720002 178.256,28.3119998 178.256,28.36 L178.256,33.76 C178.256,33.9200008 178.176001,34 178.016,34 L176.192,34 Z M194.936001,34 C194.792,34 194.704001,33.9280007 194.672001,33.784 L190.376001,17.464 L190.352001,17.392 C190.352001,17.2639994 190.432,17.2 190.592001,17.2 L192.560001,17.2 C192.720001,17.2 192.808,17.2719993 192.824001,17.416 L195.944001,30.28 C195.960001,30.3280002 195.976,30.352 195.992001,30.352 C196.008001,30.352 196.024,30.3280002 196.040001,30.28 L199.160001,17.416 C199.192001,17.2719993 199.28,17.2 199.424001,17.2 L201.320001,17.2 C201.400001,17.2 201.46,17.2239998 201.500001,17.272 C201.540001,17.3200002 201.552001,17.3839996 201.536001,17.464 L197.192001,33.784 C197.16,33.9280007 197.072001,34 196.928001,34 L194.936001,34 Z M215.888001,18.952 C215.888001,19.1120008 215.808001,19.192 215.648001,19.192 L208.688001,19.192 C208.624,19.192 208.592001,19.2239997 208.592001,19.288 L208.592001,24.472 C208.592001,24.5360003 208.624,24.568 208.688001,24.568 L213.272001,24.568 C213.432001,24.568 213.512001,24.6479992 213.512001,24.808 L213.512001,26.32 C213.512001,26.4800008 213.432001,26.56 213.272001,26.56 L208.688001,26.56 C208.624,26.56 208.592001,26.5919997 208.592001,26.656 L208.592001,31.912 C208.592001,31.9760003 208.624,32.008 208.688001,32.008 L215.648001,32.008 C215.808001,32.008 215.888001,32.0879992 215.888001,32.248 L215.888001,33.76 C215.888001,33.9200008 215.808001,34 215.648001,34 L206.528001,34 C206.368,34 206.288001,33.9200008 206.288001,33.76 L206.288001,17.44 C206.288001,17.2799992 206.368,17.2 206.528001,17.2 L215.648001,17.2 C215.808001,17.2 215.888001,17.2799992 215.888001,17.44 L215.888001,18.952 Z M220.400001,34 C220.24,34 220.160001,33.9200008 220.160001,33.76 L220.160001,32.128 C220.160001,32.0159994 220.184001,31.9120005 220.232001,31.816 L227.216001,19.312 C227.232001,19.2799998 227.236001,19.2520001 227.228001,19.228 C227.220001,19.2039999 227.200001,19.192 227.168001,19.192 L220.400001,19.192 C220.24,19.192 220.160001,19.1120008 220.160001,18.952 L220.160001,17.44 C220.160001,17.2799992 220.24,17.2 220.400001,17.2 L229.544001,17.2 C229.704002,17.2 229.784001,17.2799992 229.784001,17.44 L229.784001,19.072 C229.784001,19.1840006 229.760001,19.2879995 229.712001,19.384 L222.704001,31.888 C222.688001,31.9200002 222.684001,31.9479999 222.692001,31.972 C222.700001,31.9960001 222.720001,32.008 222.752001,32.008 L229.544001,32.008 C229.704002,32.008 229.784001,32.0879992 229.784001,32.248 L229.784001,33.76 C229.784001,33.9200008 229.704002,34 229.544001,34 L220.400001,34 Z M243.488001,34 C243.344,34 243.256001,33.9280007 243.224001,33.784 L242.528001,31 C242.528001,30.9519998 242.488001,30.928 242.408001,30.928 L237.104001,30.928 C237.040001,30.928 237.000001,30.9519998 236.984001,31 L236.264001,33.784 C236.248001,33.9280007 236.160002,34 236.000001,34 L234.128001,34 C234.048,34 233.988001,33.9760002 233.948001,33.928 C233.908001,33.8799998 233.896001,33.8160004 233.912001,33.736 L238.352001,17.416 C238.384001,17.2719993 238.472,17.2 238.616001,17.2 L240.872001,17.2 C241.016002,17.2 241.104001,17.2719993 241.136001,17.416 L245.600001,33.736 L245.624001,33.808 C245.624001,33.9360006 245.544002,34 245.384001,34 L243.488001,34 Z M237.488001,29.008 C237.472001,29.0240001 237.476001,29.0439999 237.500001,29.068 C237.524001,29.0920001 237.552001,29.104 237.584001,29.104 L241.904001,29.104 C241.936001,29.104 241.964001,29.0920001 241.988001,29.068 C242.012001,29.0439999 242.016001,29.0240001 242.000001,29.008 L239.816001,20.368 C239.800001,20.3359998 239.784001,20.32 239.768001,20.32 C239.752001,20.32 239.736001,20.3359998 239.720001,20.368 L237.488001,29.008 Z" id="Mozaikveza" fill="#292425"></path>
                    <mask id="mask-2" fill="white">
                        <use xlink:href="#path-1"></use>
                    </mask>
                    <use id="Combined-Shape" fill="#F6DA00" xlink:href="#path-1"></use>
                </g>
            </g>
        </g>
    </g>
</svg>