<?xml version="1.0" encoding="UTF-8"?>
<svg width="131px" height="24px" viewBox="0 0 131 24" version="1.1" xmlns="http://www.w3.org/2000/svg" xmlns:xlink="http://www.w3.org/1999/xlink">
    <!-- Generator: sketchtool 50 (54983) - http://www.bohemiancoding.com/sketch -->
    <title>32A2C828-C14C-45F3-8D44-BF3B2321C282</title>
    <desc>Created with sketchtool.</desc>
    <defs>
        <path d="M34,20.4489023 L34,14.5015751 L32.5,14.5015751 L31,15.2516566 L29.5,14.5015751 L28,14.5015751 L28,21.0022812 L29,21.0022812 L29,22.6552116 C27.4196225,23.2138554 25.9196225,23.5987847 24.5,23.8099995 L24.5,20.0021725 L26,20.0021725 L26,12.5013578 L24,12.5013578 L22,13.2514393 L20,12.5013578 L18,12.5013578 L18,20.0021725 L19.5,20.0021725 L19.5,23.8078486 C18.0828771,23.5949255 16.5828771,23.2074159 15,22.6453198 L15,21.0022812 L16,21.0022812 L16,14.5015751 L14.5,14.5015751 L13,15.2516566 L11.5,14.5015751 L10,14.5015751 L10,20.4338453 C6.92322532,18.8301959 3.58989199,16.6860877 0,14.0015208 L0,10.0010863 C8.8672526,3.33369542 16.2005859,3.77233469e-16 22,0 C27.7567806,0 35.090114,3.33369542 44,10.0010863 L44,14.0015208 C40.4150278,16.6944986 37.0816945,18.8436258 34,20.4489023 Z M22,12.0013035 C23.6568542,12.0013035 25,10.6580119 25,9.00097764 C25,7.34394341 23.6568542,6.00065176 22,6.00065176 C20.3431458,6.00065176 19,7.34394341 19,9.00097764 C19,10.6580119 20.3431458,12.0013035 22,12.0013035 Z M13,14.0015208 C14.1045695,14.0015208 15,13.105993 15,12.0013035 C15,10.896614 14.1045695,10.0010863 13,10.0010863 C11.8954305,10.0010863 11,10.896614 11,12.0013035 C11,13.105993 11.8954305,14.0015208 13,14.0015208 Z M31,14.0015208 C32.1045695,14.0015208 33,13.105993 33,12.0013035 C33,10.896614 32.1045695,10.0010863 31,10.0010863 C29.8954305,10.0010863 29,10.896614 29,12.0013035 C29,13.105993 29.8954305,14.0015208 31,14.0015208 Z" id="path-1"></path>
    </defs>
    <g id="Assets" stroke="none" stroke-width="1" fill="none" fill-rule="evenodd">
        <g id="Layout/HeaderMobile" transform="translate(-16.000000, -16.000000)">
            <g id="logo-mobile" transform="translate(16.000000, 16.000000)">
                <path d="M53.148,18 C53.0546662,18 53.008,17.9533338 53.008,17.86 L53.008,8.34 C53.008,8.2466662 53.0546662,8.2 53.148,8.2 L54.212,8.2 C54.2960004,8.2 54.3519999,8.23266634 54.38,8.298 L56.284,12.204 C56.2933334,12.2226668 56.3073332,12.232 56.326,12.232 C56.3446668,12.232 56.3586666,12.2226668 56.368,12.204 L58.286,8.298 C58.3140001,8.23266634 58.3699996,8.2 58.454,8.2 L59.518,8.2 C59.6113338,8.2 59.658,8.2466662 59.658,8.34 L59.658,17.86 C59.658,17.9533338 59.6113338,18 59.518,18 L58.454,18 C58.3606662,18 58.314,17.9533338 58.314,17.86 L58.314,11.196 C58.314,11.1679999 58.3070001,11.154 58.293,11.154 C58.2789999,11.154 58.2626668,11.1633332 58.244,11.182 L56.746,14.206 C56.7179999,14.2713337 56.6620004,14.304 56.578,14.304 L56.102,14.304 C56.0179996,14.304 55.9620001,14.2713337 55.934,14.206 L54.422,11.168 C54.4033332,11.1493332 54.3870001,11.1423333 54.373,11.147 C54.3589999,11.1516667 54.352,11.1679999 54.352,11.196 L54.352,17.86 C54.352,17.9533338 54.3053338,18 54.212,18 L53.148,18 Z M65.432,18.126 C64.8346637,18.126 64.3096689,18.0023346 63.857,17.755 C63.4043311,17.5076654 63.0520013,17.1600022 62.8,16.712 C62.5479987,16.2639978 62.422,15.7460029 62.422,15.158 L62.422,11.042 C62.422,10.4633304 62.5479987,9.95000224 62.8,9.502 C63.0520013,9.05399776 63.4043311,8.70633457 63.857,8.459 C64.3096689,8.21166543 64.8346637,8.088 65.432,8.088 C66.0293363,8.088 66.5566644,8.21166543 67.014,8.459 C67.4713356,8.70633457 67.8259987,9.05399776 68.078,9.502 C68.3300013,9.95000224 68.456,10.4633304 68.456,11.042 L68.456,15.158 C68.456,15.7460029 68.3300013,16.2639978 68.078,16.712 C67.8259987,17.1600022 67.4713356,17.5076654 67.014,17.755 C66.5566644,18.0023346 66.0293363,18.126 65.432,18.126 Z M65.432,16.95 C65.9360025,16.95 66.3419985,16.7913349 66.65,16.474 C66.9580015,16.1566651 67.112,15.7366693 67.112,15.214 L67.112,11.014 C67.112,10.4913307 66.9580015,10.0666683 66.65,9.74 C66.3419985,9.4133317 65.9360025,9.25 65.432,9.25 C64.9373309,9.25 64.5360015,9.4133317 64.228,9.74 C63.9199985,10.0666683 63.766,10.4913307 63.766,11.014 L63.766,15.214 C63.766,15.7273359 63.9199985,16.1449984 64.228,16.467 C64.5360015,16.7890016 64.9373309,16.95 65.432,16.95 Z M70.87,18 C70.7766662,18 70.73,17.9533338 70.73,17.86 L70.73,16.908 C70.73,16.8426663 70.7439999,16.7820003 70.772,16.726 L74.846,9.432 C74.8553334,9.41333324 74.8576667,9.39700007 74.853,9.383 C74.8483333,9.36899993 74.8366668,9.362 74.818,9.362 L70.87,9.362 C70.7766662,9.362 70.73,9.3153338 70.73,9.222 L70.73,8.34 C70.73,8.2466662 70.7766662,8.2 70.87,8.2 L76.204,8.2 C76.2973338,8.2 76.344,8.2466662 76.344,8.34 L76.344,9.292 C76.344,9.35733366 76.3300001,9.41799972 76.302,9.474 L72.214,16.768 C72.2046666,16.7866668 72.2023333,16.8029999 72.207,16.817 C72.2116667,16.8310001 72.2233332,16.838 72.242,16.838 L76.204,16.838 C76.2973338,16.838 76.344,16.8846662 76.344,16.978 L76.344,17.86 C76.344,17.9533338 76.2973338,18 76.204,18 L70.87,18 Z M83.938,18 C83.8539996,18 83.8026668,17.9580004 83.784,17.874 L83.378,16.25 C83.378,16.2219999 83.3546669,16.208 83.308,16.208 L80.214,16.208 C80.1766665,16.208 80.1533334,16.2219999 80.144,16.25 L79.724,17.874 C79.7146666,17.9580004 79.6633338,18 79.57,18 L78.478,18 C78.4313331,18 78.3963335,17.9860001 78.373,17.958 C78.3496666,17.9299999 78.3426666,17.8926669 78.352,17.846 L80.942,8.326 C80.9606668,8.24199958 81.0119996,8.2 81.096,8.2 L82.412,8.2 C82.4960004,8.2 82.5473332,8.24199958 82.566,8.326 L85.17,17.846 L85.184,17.888 C85.184,17.962667 85.1373338,18 85.044,18 L83.938,18 Z M80.438,15.088 C80.4286666,15.0973334 80.4309999,15.1089999 80.445,15.123 C80.4590001,15.1370001 80.4753332,15.144 80.494,15.144 L83.014,15.144 C83.0326668,15.144 83.0489999,15.1370001 83.063,15.123 C83.0770001,15.1089999 83.0793334,15.0973334 83.07,15.088 L81.796,10.048 C81.7866666,10.0293332 81.7773334,10.02 81.768,10.02 C81.7586666,10.02 81.7493334,10.0293332 81.74,10.048 L80.438,15.088 Z M87.752,18 C87.6586662,18 87.612,17.9533338 87.612,17.86 L87.612,8.34 C87.612,8.2466662 87.6586662,8.2 87.752,8.2 L88.816,8.2 C88.9093338,8.2 88.956,8.2466662 88.956,8.34 L88.956,17.86 C88.956,17.9533338 88.9093338,18 88.816,18 L87.752,18 Z M92.112,18 C92.0186662,18 91.972,17.9533338 91.972,17.86 L91.972,8.34 C91.972,8.2466662 92.0186662,8.2 92.112,8.2 L93.176,8.2 C93.2693338,8.2 93.316,8.2466662 93.316,8.34 L93.316,12.68 C93.316,12.6986668 93.3253332,12.7103333 93.344,12.715 C93.3626668,12.7196667 93.3766666,12.7126668 93.386,12.694 L96.592,8.284 C96.6293335,8.22799972 96.685333,8.2 96.76,8.2 L97.922,8.2 C97.9780003,8.2 98.0176666,8.21866648 98.041,8.256 C98.0643334,8.29333352 98.0573335,8.33066648 98.02,8.368 L95.29,12.274 C95.2806666,12.3020001 95.2806666,12.3299999 95.29,12.358 L98.244,17.832 C98.2533334,17.8506668 98.258,17.8739999 98.258,17.902 C98.258,17.9300001 98.2463335,17.9533332 98.223,17.972 C98.1996666,17.9906668 98.1693335,18 98.132,18 L96.942,18 C96.8579996,18 96.8020001,17.9673337 96.774,17.902 L94.352,13.422 C94.3333332,13.3659997 94.3100001,13.3613331 94.282,13.408 L93.344,14.64 C93.3253332,14.6586668 93.316,14.6819999 93.316,14.71 L93.316,17.86 C93.316,17.9533338 93.2693338,18 93.176,18 L92.112,18 Z M102.646,18 C102.562,18 102.510667,17.9580004 102.492,17.874 L99.986,8.354 L99.972,8.312 C99.972,8.23733296 100.018666,8.2 100.112,8.2 L101.26,8.2 C101.353334,8.2 101.404667,8.24199958 101.414,8.326 L103.234,15.83 C103.243333,15.8580001 103.252667,15.872 103.262,15.872 C103.271333,15.872 103.280667,15.8580001 103.29,15.83 L105.11,8.326 C105.128667,8.24199958 105.18,8.2 105.264,8.2 L106.37,8.2 C106.416667,8.2 106.451667,8.21399986 106.475,8.242 C106.498333,8.27000014 106.505333,8.3073331 106.496,8.354 L103.962,17.874 C103.943333,17.9580004 103.892,18 103.808,18 L102.646,18 Z M114.468,9.222 C114.468,9.3153338 114.421334,9.362 114.328,9.362 L110.268,9.362 C110.230666,9.362 110.212,9.38066648 110.212,9.418 L110.212,12.442 C110.212,12.4793335 110.230666,12.498 110.268,12.498 L112.942,12.498 C113.035334,12.498 113.082,12.5446662 113.082,12.638 L113.082,13.52 C113.082,13.6133338 113.035334,13.66 112.942,13.66 L110.268,13.66 C110.230666,13.66 110.212,13.6786665 110.212,13.716 L110.212,16.782 C110.212,16.8193335 110.230666,16.838 110.268,16.838 L114.328,16.838 C114.421334,16.838 114.468,16.8846662 114.468,16.978 L114.468,17.86 C114.468,17.9533338 114.421334,18 114.328,18 L109.008,18 C108.914666,18 108.868,17.9533338 108.868,17.86 L108.868,8.34 C108.868,8.2466662 108.914666,8.2 109.008,8.2 L114.328,8.2 C114.421334,8.2 114.468,8.2466662 114.468,8.34 L114.468,9.222 Z M116.7,18 C116.606666,18 116.56,17.9533338 116.56,17.86 L116.56,16.908 C116.56,16.8426663 116.574,16.7820003 116.602,16.726 L120.676,9.432 C120.685333,9.41333324 120.687667,9.39700007 120.683,9.383 C120.678333,9.36899993 120.666667,9.362 120.648,9.362 L116.7,9.362 C116.606666,9.362 116.56,9.3153338 116.56,9.222 L116.56,8.34 C116.56,8.2466662 116.606666,8.2 116.7,8.2 L122.034,8.2 C122.127334,8.2 122.174,8.2466662 122.174,8.34 L122.174,9.292 C122.174,9.35733366 122.16,9.41799972 122.132,9.474 L118.044,16.768 C118.034667,16.7866668 118.032333,16.8029999 118.037,16.817 C118.041667,16.8310001 118.053333,16.838 118.072,16.838 L122.034,16.838 C122.127334,16.838 122.174,16.8846662 122.174,16.978 L122.174,17.86 C122.174,17.9533338 122.127334,18 122.034,18 L116.7,18 Z M129.768,18 C129.684,18 129.632667,17.9580004 129.614,17.874 L129.208,16.25 C129.208,16.2219999 129.184667,16.208 129.138,16.208 L126.044,16.208 C126.006666,16.208 125.983333,16.2219999 125.974,16.25 L125.554,17.874 C125.544667,17.9580004 125.493334,18 125.4,18 L124.308,18 C124.261333,18 124.226333,17.9860001 124.203,17.958 C124.179667,17.9299999 124.172667,17.8926669 124.182,17.846 L126.772,8.326 C126.790667,8.24199958 126.842,8.2 126.926,8.2 L128.242,8.2 C128.326,8.2 128.377333,8.24199958 128.396,8.326 L131,17.846 L131.014,17.888 C131.014,17.962667 130.967334,18 130.874,18 L129.768,18 Z M126.268,15.088 C126.258667,15.0973334 126.261,15.1089999 126.275,15.123 C126.289,15.1370001 126.305333,15.144 126.324,15.144 L128.844,15.144 C128.862667,15.144 128.879,15.1370001 128.893,15.123 C128.907,15.1089999 128.909333,15.0973334 128.9,15.088 L127.626,10.048 C127.616667,10.0293332 127.607333,10.02 127.598,10.02 C127.588667,10.02 127.579333,10.0293332 127.57,10.048 L126.268,15.088 Z" id="Mozaikveza" fill="#292425"></path>
                <mask id="mask-2" fill="white">
                    <use xlink:href="#path-1"></use>
                </mask>
                <use id="Combined-Shape" fill="#F6DA00" xlink:href="#path-1"></use>
            </g>
        </g>
    </g>
</svg>